<svg xmlns="http://www.w3.org/2000/svg" width="356" height="380" viewBox="0 0 356 380" role="img" aria-label="苦情の信頼度曲線">
<rect width="100%" height="100%" fill="#ffffff"/>
<text x="16" y="24" font-family="-apple-system, 'Hiragino Sans', 'Noto Sans JP', sans-serif" font-size="15" font-weight="bold" fill="#111827">苦情の信頼度曲線</text>
<rect x="16" y="36" width="12" height="12" fill="#2563eb"/>
<text x="32" y="46" font-family="-apple-system, 'Hiragino Sans', 'Noto Sans JP', sans-serif" font-size="12" fill="#374151">日本語</text>
<line x1="56" y1="324" x2="316" y2="324" stroke="#f3f4f6"/>
<text x="50" y="328" text-anchor="end" font-family="-apple-system, 'Hiragino Sans', 'Noto Sans JP', sans-serif" font-size="11" fill="#6b7280">0.00</text>
<text x="56" y="340" text-anchor="middle" font-family="-apple-system, 'Hiragino Sans', 'Noto Sans JP', sans-serif" font-size="11" fill="#6b7280">0.00</text>
<line x1="56" y1="259" x2="316" y2="259" stroke="#f3f4f6"/>
<text x="50" y="263" text-anchor="end" font-family="-apple-system, 'Hiragino Sans', 'Noto Sans JP', sans-serif" font-size="11" fill="#6b7280">0.25</text>
<text x="121" y="340" text-anchor="middle" font-family="-apple-system, 'Hiragino Sans', 'Noto Sans JP', sans-serif" font-size="11" fill="#6b7280">0.25</text>
<line x1="56" y1="194" x2="316" y2="194" stroke="#f3f4f6"/>
<text x="50" y="198" text-anchor="end" font-family="-apple-system, 'Hiragino Sans', 'Noto Sans JP', sans-serif" font-size="11" fill="#6b7280">0.50</text>
<text x="186" y="340" text-anchor="middle" font-family="-apple-system, 'Hiragino Sans', 'Noto Sans JP', sans-serif" font-size="11" fill="#6b7280">0.50</text>
<line x1="56" y1="129" x2="316" y2="129" stroke="#f3f4f6"/>
<text x="50" y="133" text-anchor="end" font-family="-apple-system, 'Hiragino Sans', 'Noto Sans JP', sans-serif" font-size="11" fill="#6b7280">0.75</text>
<text x="251" y="340" text-anchor="middle" font-family="-apple-system, 'Hiragino Sans', 'Noto Sans JP', sans-serif" font-size="11" fill="#6b7280">0.75</text>
<line x1="56" y1="64" x2="316" y2="64" stroke="#f3f4f6"/>
<text x="50" y="68" text-anchor="end" font-family="-apple-system, 'Hiragino Sans', 'Noto Sans JP', sans-serif" font-size="11" fill="#6b7280">1.00</text>
<text x="316" y="340" text-anchor="middle" font-family="-apple-system, 'Hiragino Sans', 'Noto Sans JP', sans-serif" font-size="11" fill="#6b7280">1.00</text>
<rect x="56" y="64" width="260" height="260" fill="none" stroke="#9ca3af"/>
<line x1="56" y1="324" x2="316" y2="64" stroke="#9ca3af" stroke-dasharray="4 4"/>
<text x="186" y="360" text-anchor="middle" font-family="-apple-system, 'Hiragino Sans', 'Noto Sans JP', sans-serif" font-size="12" fill="#374151">予測した確率</text>
<text x="16" y="194" font-family="-apple-system, 'Hiragino Sans', 'Noto Sans JP', sans-serif" font-size="12" fill="#374151" transform="rotate(-90 16 194)" text-anchor="middle">実際の割合</text>
<polyline fill="none" stroke="#2563eb" stroke-width="2" points="67.9,317.3 116.7,237.3 180.8,64.0 225.0,64.0 291.2,64.0"/>
<circle cx="67.9" cy="317.3" r="9.0" fill="#2563eb" fill-opacity="0.7"/>
<circle cx="116.7" cy="237.3" r="4.7" fill="#2563eb" fill-opacity="0.7"/>
<circle cx="180.8" cy="64.0" r="5.0" fill="#2563eb" fill-opacity="0.7"/>
<circle cx="225.0" cy="64.0" r="4.7" fill="#2563eb" fill-opacity="0.7"/>
<circle cx="291.2" cy="64.0" r="6.3" fill="#2563eb" fill-opacity="0.7"/>
</svg>
