<svg xmlns="http://www.w3.org/2000/svg" width="288" height="312" viewBox="0 0 288 312" role="img" aria-label="日英の正解率">
<rect width="100%" height="100%" fill="#ffffff"/>
<text x="16" y="24" font-family="-apple-system, 'Hiragino Sans', 'Noto Sans JP', sans-serif" font-size="15" font-weight="bold" fill="#111827">日英の正解率</text>
<rect x="16" y="36" width="12" height="12" fill="#2563eb"/>
<text x="32" y="46" font-family="-apple-system, 'Hiragino Sans', 'Noto Sans JP', sans-serif" font-size="12" fill="#374151">日本語</text>
<rect x="126" y="36" width="12" height="12" fill="#f59e0b"/>
<text x="142" y="46" font-family="-apple-system, 'Hiragino Sans', 'Noto Sans JP', sans-serif" font-size="12" fill="#374151">English</text>
<line x1="48" y1="264" x2="272" y2="264" stroke="#e5e7eb"/>
<text x="42" y="268" text-anchor="end" font-family="-apple-system, 'Hiragino Sans', 'Noto Sans JP', sans-serif" font-size="11" fill="#6b7280">0.00</text>
<line x1="48" y1="214" x2="272" y2="214" stroke="#e5e7eb"/>
<text x="42" y="218" text-anchor="end" font-family="-apple-system, 'Hiragino Sans', 'Noto Sans JP', sans-serif" font-size="11" fill="#6b7280">0.25</text>
<line x1="48" y1="164" x2="272" y2="164" stroke="#e5e7eb"/>
<text x="42" y="168" text-anchor="end" font-family="-apple-system, 'Hiragino Sans', 'Noto Sans JP', sans-serif" font-size="11" fill="#6b7280">0.50</text>
<line x1="48" y1="114" x2="272" y2="114" stroke="#e5e7eb"/>
<text x="42" y="118" text-anchor="end" font-family="-apple-system, 'Hiragino Sans', 'Noto Sans JP', sans-serif" font-size="11" fill="#6b7280">0.75</text>
<line x1="48" y1="64" x2="272" y2="64" stroke="#e5e7eb"/>
<text x="42" y="68" text-anchor="end" font-family="-apple-system, 'Hiragino Sans', 'Noto Sans JP', sans-serif" font-size="11" fill="#6b7280">1.00</text>
<rect x="60.0" y="80.7" width="22.0" height="183.3" fill="#2563eb"/>
<rect x="84.0" y="80.7" width="22.0" height="183.3" fill="#f59e0b"/>
<text x="84" y="282" text-anchor="middle" font-family="-apple-system, 'Hiragino Sans', 'Noto Sans JP', sans-serif" font-size="12" fill="#374151">苦情</text>
<rect x="132.0" y="70.7" width="22.0" height="193.3" fill="#2563eb"/>
<rect x="156.0" y="70.7" width="22.0" height="193.3" fill="#f59e0b"/>
<text x="156" y="282" text-anchor="middle" font-family="-apple-system, 'Hiragino Sans', 'Noto Sans JP', sans-serif" font-size="12" fill="#374151">担当</text>
<rect x="204.0" y="107.3" width="22.0" height="156.7" fill="#2563eb"/>
<rect x="228.0" y="104.0" width="22.0" height="160.0" fill="#f59e0b"/>
<text x="228" y="282" text-anchor="middle" font-family="-apple-system, 'Hiragino Sans', 'Noto Sans JP', sans-serif" font-size="12" fill="#374151">緊急度</text>
</svg>
